<?xml version="1.0" encoding="utf-8"?>
<!-- Generator: $$$/GeneralStr/196=Adobe Illustrator 27.6.0, SVG Export Plug-In . SVG Version: 6.00 Build 0)  -->
<svg version="1.1" id="图层_1" xmlns="http://www.w3.org/2000/svg" xmlns:xlink="http://www.w3.org/1999/xlink" x="0px" y="0px"
	 viewBox="0 0 256 256" style="enable-background:new 0 0 256 256;" xml:space="preserve">
<style type="text/css">
	.st0{fill:#CCCCCC;}
	.st1{fill:none;stroke:#CCCCCC;stroke-width:10;stroke-linecap:round;stroke-linejoin:round;stroke-miterlimit:10;}
</style>
<g>
	<path class="st0" d="M209.21,70c1.08,0,2,0.92,2,2v112c0,1.08-0.92,2-2,2H46.79c-1.08,0-2-0.92-2-2V72c0-1.08,0.92-2,2-2H209.21
		 M209.21,60H46.79c-6.6,0-12,5.4-12,12v112c0,6.6,5.4,12,12,12h162.41c6.6,0,12-5.4,12-12V72C221.21,65.4,215.81,60,209.21,60
		L209.21,60z"/>
</g>
</svg>
