<?xml version="1.0" encoding="utf-8"?>
<!-- Generator: $$$/GeneralStr/196=Adobe Illustrator 27.6.0, SVG Export Plug-In . SVG Version: 6.00 Build 0)  -->
<svg version="1.1" id="图层_1" xmlns="http://www.w3.org/2000/svg" xmlns:xlink="http://www.w3.org/1999/xlink" x="0px" y="0px"
	 viewBox="0 0 256 256" style="enable-background:new 0 0 256 256;" xml:space="preserve">
<style type="text/css">
	.st0{fill:#CCCCCC;}
	.st1{fill:none;stroke:#CCCCCC;stroke-width:10;stroke-linecap:round;stroke-linejoin:round;stroke-miterlimit:10;}
</style>
<g>
	<g>
		<path class="st0" d="M157,95.5c1.08,0,2,0.92,2,2v112c0,1.08-0.92,2-2,2H45c-1.08,0-2-0.92-2-2v-112c0-1.08,0.92-2,2-2H157
			 M157,85.5H45c-6.6,0-12,5.4-12,12v112c0,6.6,5.4,12,12,12h112c6.6,0,12-5.4,12-12v-112C169,90.9,163.6,85.5,157,85.5L157,85.5z"
			/>
	</g>
	<g>
		<path class="st0" d="M211,44.5c1.08,0,2,0.92,2,2v112c0,1.08-0.92,2-2,2h-41.16V99.34c0-8.03-6.54-14.57-14.57-14.57H97V46.5
			c0-1.08,0.92-2,2-2H211 M211,34.5H99c-6.6,0-12,5.4-12,12v48.27h68.27c2.52,0,4.57,2.05,4.57,4.57v71.16H211c6.6,0,12-5.4,12-12
			v-112C223,39.9,217.6,34.5,211,34.5L211,34.5z"/>
	</g>
</g>
</svg>
